<svg xmlns="http://www.w3.org/2000/svg" viewBox="0 0 48 48" width="48" height="48">
  <rect width="48" height="48" rx="10" fill="#1b813e" />
  <g fill="none" stroke="#ffffff" stroke-width="2.5" stroke-linecap="round" stroke-linejoin="round">
    <path d="M 24 24 L 24 40" />
    <path d="M 24 24 C 21.5 17 21.5 8 24 5 C 26.5 8 26.5 17 24 24 Z" />
    <path d="M 24 24 C 16 19 8.5 14 9.5 9.5 C 14 8.5 19 16 24 24 Z" />
    <path d="M 24 24 C 32 19 39.5 14 38.5 9.5 C 34 8.5 29 16 24 24 Z" />
    <path d="M 24 24 C 14.5 25.5 5 27 3.5 23 C 5 19.5 14.5 21 24 24 Z" />
    <path d="M 24 24 C 33.5 25.5 43 27 44.5 23 C 43 19.5 33.5 21 24 24 Z" />
  </g>
</svg>
